<?xml version="1.0" encoding="utf-8"?>
<svg xmlns="http://www.w3.org/2000/svg" height="256" width="256" viewBox="0 0 256 256">
  <g>
    <ellipse cy="128" cx="128" stroke-width="8.62500051409009" ry="123.687499742955" rx="123.687499742955" stroke="#000000" fill="transparent" />
    <path id="path1" transform="rotate(0,128,128) translate(59,75.3874976865946) scale(4.31250025704505,4.31250025704505)  " fill="#E40D0D" d="M1.9999995,20.700017L30.000001,20.700017 31.899993,23.600011C31.999999,23.700017,31.999999,23.700017,31.999999,23.799993L31.999999,24.100011C31.999999,24.299993,31.899993,24.399999,31.699996,24.399999L0.30000304,24.399999C0.09999845,24.399999,0,24.299993,0,24.100011L0,23.799993C0,23.700017,0,23.600011,0.099998472,23.600011z M23.899995,9.1999993L28.000001,9.1999993 28.000001,19.399999 23.899995,19.399999z M10.599996,9.1999993L14.699993,9.1999993 14.699993,19.399999 10.599996,19.399999z M3.999999,9.1999993L8.0999968,9.1999993 8.0999968,19.399999 3.999999,19.399999z M17.199992,9.0999932L21.299991,9.0999932 21.299991,19.299993 17.199992,19.299993z M15.899998,0L17.799998,0.5999908 18.299998,2.0000004 19.799991,3.0000009 21.899997,2.5999918 24.099992,3.8999948 27.000001,3.300004 29.699998,4.1999979 29.899995,4.1999979C30.099992,4.1999979,30.199998,4.300004,30.199998,4.5000009L30.199998,7.8000049C30.199998,7.8000049,30.000001,8.0000019,29.899995,8.0000019L2.099998,8.0000019C1.9999995,8.0000019,1.8000027,7.8000049,1.8000025,7.6999988L1.8000025,4.3999948C1.8000027,4.1999979,1.9000011,4.0999918,2.099998,4.0999918L2.3000025,4.0999918z" />
  </g>
</svg>

